<svg xmlns="http://www.w3.org/2000/svg" xmlns:xlink="http://www.w3.org/1999/xlink" width="121.5" height="89.61" viewBox="0 0 121.5 89.61"><defs><style>.a{clip-path:url(#a);}.b{fill:#da1f26;}</style><clipPath id="a"><path d="M0,.39H121.5V90H0Z"/></clipPath></defs><g class="a" transform="translate(0 -0.39)"><path class="b" d="M121.5,43.195v4c-.038.217-.086.43-.111.646-.207,1.74-.341,3.491-.627,5.218a42.691,42.691,0,0,1-5.953,15.654A44.516,44.516,0,0,1,96.354,85.436a43.169,43.169,0,0,1-14.236,4.2c-1.1.127-2.2.241-3.3.362H36.135a5.341,5.341,0,0,0-.646-.117A36.4,36.4,0,0,1,23.1,86.9,37.8,37.8,0,0,1,3.9,68.661,35.884,35.884,0,0,1,.358,56.86q-.182-1.5-.358-3V49.984a5.186,5.186,0,0,0,.117-.646,35.755,35.755,0,0,1,2.335-10.83A37.784,37.784,0,0,1,21.376,17.7a37.075,37.075,0,0,1,14.819-3.831,41.164,41.164,0,0,1,7.612.349.961.961,0,0,0,.718-.234A45.009,45.009,0,0,1,56.966,4.973,43.537,43.537,0,0,1,71.272.755C72.452.62,73.635.509,74.817.387h3.639c.238.037.477.079.715.107,1.8.21,3.616.342,5.4.641a42.807,42.807,0,0,1,15.559,5.906,44.517,44.517,0,0,1,16.8,18.487,43.067,43.067,0,0,1,4.205,14.246c.13,1.141.241,2.282.362,3.421M53.565,17.312c.073.1.091.141.122.156a48.613,48.613,0,0,1,7.139,4.317.751.751,0,0,0,.666-.048,28.041,28.041,0,0,1,37.3,6.419,26.521,26.521,0,0,1,5.494,21.611A27.705,27.705,0,0,1,97.55,64.009c-6.68,7.367-15.045,10.414-24.892,9.124a26.28,26.28,0,0,1-15.626-7.786C51.473,59.732,45.878,54.154,40.3,48.554a4.511,4.511,0,0,0-2.64-1.477,4.194,4.194,0,0,0-4.372,2.383,3.869,3.869,0,0,0,.935,4.725c6.215,6.1,12.375,12.258,18.583,18.365a30.005,30.005,0,0,0,3.409,2.9A32.62,32.62,0,0,0,71.4,81.3a36.632,36.632,0,0,0,12.937-.511,36.485,36.485,0,0,0,28.231-30.7,35.81,35.81,0,0,0-.332-11.749,34.875,34.875,0,0,0-8.2-16.815C95.848,12.334,85.548,8.23,73.291,9.146A34.157,34.157,0,0,0,59.919,13.08a35.285,35.285,0,0,0-6.354,4.232m-3,64.176q-.253-.234-.5-.471c-2.541-2.4-5.1-4.783-7.607-7.213a2.058,2.058,0,0,0-1.621-.683,30.8,30.8,0,0,1-7.594-.493,21.251,21.251,0,0,1,8.434-41.643,20.6,20.6,0,0,1,11.515,5.96c3.894,4.02,7.9,7.925,11.84,11.9a3.537,3.537,0,0,0,3.166,1.142,3.979,3.979,0,0,0,3.461-2.566,3.789,3.789,0,0,0-.879-4.2c-4.131-4.185-8.164-8.475-12.462-12.482-8.336-7.775-18.166-10.087-29.038-6.781A29.474,29.474,0,0,0,38.248,81.52q5.819.006,11.638,0c.192,0,.384-.017.68-.032"/></g></svg>