<svg xmlns="http://www.w3.org/2000/svg" width="95.317" height="92.934" viewBox="0 0 95.317 92.934"><defs><style>.a{fill:#470137;}.b{fill:#ff61f6;}</style></defs><path class="a" d="M16.879,0H78.438A16.865,16.865,0,0,1,95.317,16.879V76.055A16.865,16.865,0,0,1,78.438,92.934H16.879A16.865,16.865,0,0,1,0,76.055V16.879A16.865,16.865,0,0,1,16.879,0Z" transform="translate(0 0)"/><g transform="translate(13.307 21.197)"><path class="b" d="M69.689,60.571,58.27,79.412,70.45,99.395a.655.655,0,0,1,.076.457c-.038.152-.19.038-.419.076H61.391c-.609,0-1.028-.038-1.294-.419-.8-1.6-1.637-3.159-2.436-4.758-.8-1.561-1.675-3.159-2.588-4.8s-1.827-3.273-2.741-4.948h-.076c-.8,1.637-1.675,3.273-2.55,4.91s-1.751,3.273-2.588,4.872c-.875,1.6-1.751,3.235-2.626,4.8-.152.381-.457.419-.875.419H35.242c-.152,0-.266.076-.266-.114a.529.529,0,0,1,.076-.419L46.889,80.059,35.356,60.533c-.114-.152-.152-.3-.076-.381A.441.441,0,0,1,35.661,60H44.3a2.246,2.246,0,0,1,.533.076,1.079,1.079,0,0,1,.381.343c.723,1.637,1.561,3.273,2.436,4.91.913,1.637,1.789,3.235,2.74,4.834.913,1.6,1.751,3.2,2.55,4.834h.076c.8-1.675,1.637-3.311,2.474-4.91s1.713-3.2,2.588-4.8,1.713-3.235,2.55-4.8a.647.647,0,0,1,.228-.381.726.726,0,0,1,.495-.076h8.031a.351.351,0,0,1,.419.266C69.841,60.343,69.765,60.495,69.689,60.571Z" transform="translate(-34.961 -56.683)"/><path class="b" d="M146.322,95.329a18.923,18.923,0,0,1-8.183-1.713,13.27,13.27,0,0,1-5.747-5.176,16.47,16.47,0,0,1-2.093-8.678,15.633,15.633,0,0,1,2.093-8.031,15.807,15.807,0,0,1,6.052-5.9,19.47,19.47,0,0,1,9.63-2.208,6.8,6.8,0,0,1,.8.038c.343.038.723.038,1.18.076V51.709c0-.266.114-.419.381-.419h7.727a.341.341,0,0,1,.381.266V87.868c0,.685.038,1.446.076,2.284.076.8.114,1.561.152,2.208a.618.618,0,0,1-.381.609,29.069,29.069,0,0,1-6.2,1.827A33.572,33.572,0,0,1,146.322,95.329Zm3.73-7.613V70.969a9.738,9.738,0,0,0-1.028-.19c-.419-.038-.837-.076-1.256-.076a9.383,9.383,0,0,0-4.3.99,8.533,8.533,0,0,0-3.235,2.817,8.437,8.437,0,0,0-1.256,4.834,10.607,10.607,0,0,0,.647,3.92,7.439,7.439,0,0,0,1.713,2.7,6.576,6.576,0,0,0,2.588,1.522,9.963,9.963,0,0,0,3.159.495c.571,0,1.1-.038,1.6-.076a3.329,3.329,0,0,0,1.37-.19Z" transform="translate(-90.042 -51.284)"/></g></svg>