<svg xmlns="http://www.w3.org/2000/svg" xmlns:xlink="http://www.w3.org/1999/xlink" width="98.128" height="95.675" viewBox="0 0 98.128 95.675"><defs><style>.a{fill:url(#a);}.b{fill:#ff7f18;}</style><radialGradient id="a" cx="0.329" cy="0.224" r="0.781" gradientTransform="translate(-0.01 0.01) scale(0.973 0.968)" gradientUnits="objectBoundingBox"><stop offset="0" stop-color="#423325" stop-opacity="0.98"/><stop offset="1" stop-color="#1c0a00"/></radialGradient></defs><path class="a" d="M24.8,155.549h89.951v87.5H24.8Z" transform="translate(-20.714 -151.46)"/><path class="b" d="M4.089,134.835H94.039v87.5H4.089ZM0,226.421H98.128V130.746H0Zm64.274-61.576c0-.327.123-.491.491-.491h6.419c.327,0,.491.123.491.491v32.26c0,.327-.082.491-.491.491H64.846c-.409,0-.532-.2-.532-.531V164.846Zm-.45-9.281a4.17,4.17,0,0,1,8.341,0,3.908,3.908,0,0,1-4.252,4.17A3.843,3.843,0,0,1,63.824,155.564ZM45.425,178.3c-1.145-4.538-3.843-14.433-4.866-19.217h-.082c-.859,4.784-3.026,12.879-4.743,19.217Zm-11.366,6.624-3.23,12.266c-.082.327-.2.409-.613.409H24.2c-.409,0-.491-.123-.409-.613l11.612-40.642a13.244,13.244,0,0,0,.409-3.393c0-.286.123-.409.327-.409H44.73c.286,0,.409.082.491.409l13,44.117c.082.327,0,.531-.327.531H51.108c-.327,0-.532-.082-.613-.368l-3.353-12.307H34.059Z" transform="translate(0 -130.746)"/></svg>