<svg xmlns="http://www.w3.org/2000/svg" width="100.603" height="98.087" viewBox="0 0 100.603 98.087"><defs><style>.a{fill:#2e001e;}.b{fill:#ff2bc2;}</style></defs><path class="a" d="M10,10h92.219V99.7H10Z" transform="translate(-5.808 -5.808)"/><path class="b" d="M0,0V98.088H100.6V0ZM4.192,4.192H96.411V93.9H4.192Z"/><path class="b" d="M99.32,73.441a5.756,5.756,0,0,0-2.431-.419c-5.282,0-8.8,4.066-8.8,10.815,0,7.713,3.6,10.815,8.3,10.815a7.908,7.908,0,0,0,2.892-.461V73.441ZM80.54,84.172c0-9.767,6.288-17.4,16.6-17.4a18.587,18.587,0,0,1,2.18.084v-10.9a.42.42,0,0,1,.419-.419h6.749c.335,0,.419.126.419.335V94.19a29.856,29.856,0,0,0,.21,4.108c0,.293,0,.335-.252.461a24.969,24.969,0,0,1-10.731,2.431C87.038,101.19,80.54,95.573,80.54,84.172ZM66.246,77.381l11.737,22.761c.21.335.084.671-.252.671H70.438a.823.823,0,0,1-.88-.545q-4.024-8.3-8.216-17.228h-.084c-2.515,5.617-5.282,11.737-7.964,17.27a.8.8,0,0,1-.755.461H45.581c-.419,0-.461-.335-.252-.587L56.815,78.094,45.707,56.129A.371.371,0,0,1,46,55.5h7.21c.419,0,.629.084.755.461,2.641,5.575,5.324,11.066,7.839,16.683h.084c2.431-5.533,5.114-11.108,7.671-16.6.21-.335.335-.545.755-.545h6.749c.335,0,.461.252.252.629L66.246,77.381Z" transform="translate(-26.257 -32.236)"/></svg>