<svg xmlns="http://www.w3.org/2000/svg" width="123.269" height="88.84" viewBox="0 0 123.269 88.84"><defs><style>.a{fill:#2579d8;}</style></defs><g transform="translate(0 -71.5)"><g transform="translate(0 71.5)"><path class="a" d="M114.24,71.5h-6.323a1.806,1.806,0,0,0,0,3.611h6.323a5.423,5.423,0,0,1,5.417,5.417v8.306H3.611V80.528a5.423,5.423,0,0,1,5.417-5.417H99.989a1.806,1.806,0,1,0,0-3.611H9.028A9.039,9.039,0,0,0,0,80.528v19.906a1.806,1.806,0,1,0,3.611,0V92.446H119.657V139a1.806,1.806,0,1,0,3.611,0V80.528A9.039,9.039,0,0,0,114.24,71.5Z" transform="translate(0 -71.5)"/><path class="a" d="M121.463,254.8a1.805,1.805,0,0,0-1.806,1.806v4.7a5.423,5.423,0,0,1-5.417,5.417H9.028A5.423,5.423,0,0,1,3.611,261.3V218.173a1.806,1.806,0,1,0-3.611,0V261.3a9.039,9.039,0,0,0,9.028,9.028H114.24a9.039,9.039,0,0,0,9.028-9.028v-4.7A1.806,1.806,0,0,0,121.463,254.8Z" transform="translate(0 -181.489)"/><path class="a" d="M64.542,232.79a1.806,1.806,0,0,0-2.553,0L51.138,243.641a1.806,1.806,0,0,0,0,2.554L61.845,256.9a1.806,1.806,0,0,0,2.553-2.554l-9.431-9.431,9.574-9.574A1.806,1.806,0,0,0,64.542,232.79Z" transform="translate(-38.424 -193.556)"/><path class="a" d="M207.224,256.9a1.806,1.806,0,0,0,2.553,0l10.708-10.708a1.806,1.806,0,0,0,0-2.554l-10.851-10.851a1.806,1.806,0,0,0-2.553,2.554l9.575,9.574-9.431,9.431A1.806,1.806,0,0,0,207.224,256.9Z" transform="translate(-156.822 -193.556)"/><path class="a" d="M126.3,244.245a1.806,1.806,0,0,0,1.688-1.166l12.831-33.8A1.806,1.806,0,1,0,137.439,208l-12.831,33.8a1.807,1.807,0,0,0,1.688,2.447Z" transform="translate(-94.518 -174.248)"/><path class="a" d="M33.006,98.288a5.417,5.417,0,1,0,5.417-5.417A5.423,5.423,0,0,0,33.006,98.288Zm7.223,0a1.806,1.806,0,1,1-1.806-1.806A1.808,1.808,0,0,1,40.229,98.288Z" transform="translate(-25.06 -87.726)"/><path class="a" d="M91.166,98.288a5.417,5.417,0,1,0,5.417-5.417A5.423,5.423,0,0,0,91.166,98.288Zm7.223,0a1.806,1.806,0,1,1-1.806-1.806A1.808,1.808,0,0,1,98.389,98.288Z" transform="translate(-69.217 -87.726)"/><path class="a" d="M149.325,98.288a5.417,5.417,0,1,0,5.417-5.417A5.423,5.423,0,0,0,149.325,98.288Zm7.223,0a1.806,1.806,0,1,1-1.806-1.806A1.808,1.808,0,0,1,156.548,98.288Z" transform="translate(-113.374 -87.726)"/><path class="a" d="M318.417,208.2h11.316a5.417,5.417,0,1,0,0-10.834H318.417a5.417,5.417,0,1,0,0,10.834Zm0-7.223h11.316a1.806,1.806,0,1,1,0,3.611H318.417a1.806,1.806,0,1,1,0-3.611Z" transform="translate(-237.642 -167.064)"/><path class="a" d="M318.417,268.2h29.854a5.417,5.417,0,1,0,0-10.834H318.417a5.417,5.417,0,1,0,0,10.834Zm0-7.223h29.854a1.806,1.806,0,1,1,0,3.611H318.417a1.806,1.806,0,1,1,0-3.611Z" transform="translate(-237.642 -212.619)"/><path class="a" d="M318.417,328.2H339.4a5.417,5.417,0,0,0,0-10.834H318.417a5.417,5.417,0,0,0,0,10.834Zm0-7.223H339.4a1.806,1.806,0,0,1,0,3.611H318.417a1.806,1.806,0,1,1,0-3.611Z" transform="translate(-237.642 -258.173)"/></g></g></svg>