<svg xmlns="http://www.w3.org/2000/svg" width="115.312" height="81.347" viewBox="0 0 115.312 81.347"><defs><style>.a{fill:#2579d8;fill-rule:evenodd;}</style></defs><path class="a" d="M50.67,69.438H74.505c.06,4.125,1.757,7.812,6.365,10.725H44.312c3.679-2.672,6.375-5.919,6.358-10.725ZM38.586,28.576V78.435a1.733,1.733,0,0,1-1.727,1.728H1.728A1.733,1.733,0,0,1,0,78.435V28.576a1.733,1.733,0,0,1,1.728-1.727H36.855a1.733,1.733,0,0,1,1.731,1.727ZM19.291,74.42a1.98,1.98,0,1,1-1.98,1.979,1.981,1.981,0,0,1,1.98-1.979ZM36.244,29.931V72.664H2.585V29.931ZM96.226,41.492h14.96a4.13,4.13,0,0,1,4.126,4.128v31.6a4.128,4.128,0,0,1-4.126,4.127H96.226A4.13,4.13,0,0,1,92.1,77.22V45.615a4.12,4.12,0,0,1,4.127-4.122ZM93.52,75.614h20.365V45.994H93.52v29.62Zm10.18,1.291a1.7,1.7,0,1,1-1.7,1.7,1.694,1.694,0,0,1,1.7-1.7ZM16.422,0h91.413a2.632,2.632,0,0,1,2.628,2.628V32.4h-3.731V5.882a2.333,2.333,0,0,0-2.326-2.326H19.843a2.333,2.333,0,0,0-2.326,2.326V21.064H13.795V2.628A2.632,2.632,0,0,1,16.422,0ZM44.134,56.7H86.812v9.115H44.134V56.7Z"/></svg>