<svg xmlns="http://www.w3.org/2000/svg" width="61.113" height="91.669" viewBox="0 0 61.113 91.669"><defs><style>.a{fill:#0acf83;}.b{fill:#a259ff;}.c{fill:#f24e1e;}.d{fill:#ff7262;}.e{fill:#1abcfe;}</style></defs><path class="a" d="M15.278,230.556a15.284,15.284,0,0,0,15.278-15.278V200H15.278a15.278,15.278,0,1,0,0,30.556Z" transform="translate(0 -138.887)"/><path class="b" d="M0,115.278A15.284,15.284,0,0,1,15.278,100H30.556v30.556H15.278A15.284,15.284,0,0,1,0,115.278Z" transform="translate(0 -69.444)"/><path class="c" d="M0,15.278A15.284,15.284,0,0,1,15.278,0H30.556V30.556H15.278A15.284,15.284,0,0,1,0,15.278Z"/><path class="d" d="M100,0h15.278a15.278,15.278,0,1,1,0,30.556H100Z" transform="translate(-69.444)"/><path class="e" d="M130.556,115.278A15.278,15.278,0,1,1,115.278,100,15.284,15.284,0,0,1,130.556,115.278Z" transform="translate(-69.444 -69.444)"/></svg>