<svg xmlns="http://www.w3.org/2000/svg" width="98.66" height="98.663" viewBox="0 0 98.66 98.663"><defs><style>.a{fill:#2579d8;}</style></defs><g transform="translate(0)"><path class="a" d="M97.289,13.991,84.675,1.378a4.718,4.718,0,0,0-6.664,0L54.262,25.126a1.523,1.523,0,1,0,2.153,2.154L80.164,3.531a1.667,1.667,0,0,1,2.357,0L95.135,16.145a1.667,1.667,0,0,1,0,2.357l-3.1,3.1-8.111-8.11a1.523,1.523,0,1,0-2.153,2.154l8.11,8.11-3.537,3.537-3.565-3.565a1.523,1.523,0,0,0-2.153,2.154L84.2,29.441l-3.537,3.537-3.565-3.565a1.523,1.523,0,1,0-2.153,2.154l3.565,3.564-3.537,3.537-8.111-8.111a1.523,1.523,0,0,0-2.153,2.154l8.111,8.111-3.537,3.537-3.565-3.565a1.523,1.523,0,0,0-2.153,2.154l3.564,3.564L64.134,49.5,49.163,34.532l2.785-2.785a1.523,1.523,0,0,0-2.153-2.154l-2.785,2.785L18.92,4.29A10.343,10.343,0,0,0,4.292,18.918L32.381,47.007l-31,31a4.718,4.718,0,0,0,0,6.664L14,97.282a4.712,4.712,0,0,0,6.664,0l31-31,2.208,2.208a1.523,1.523,0,1,0,2.153-2.154l-3.047-3.047a1.489,1.489,0,0,0-.474-.474L19.5,29.823l4.084-4.084,2.525,2.525a1.523,1.523,0,0,0,2.154-2.154l-2.525-2.525L29.825,19.5,45.931,35.608l0,0,0,0L62.908,52.585a1.37,1.37,0,0,0,.3.3l22.6,22.6L81.72,79.564l-22.8-22.8c-.014-.015-.026-.03-.04-.045l-9.092-9.092c-.015-.015-.031-.028-.047-.042l-16.06-16.06a1.523,1.523,0,0,0-2.153,2.154L79.566,81.717,75.482,85.8,61.011,71.33a1.523,1.523,0,0,0-2.153,2.154L74.406,89.031a1.539,1.539,0,0,0,.526.343l18.4,7.143a2.471,2.471,0,0,0,3.2-3.2l-7.151-18.39a1.54,1.54,0,0,0-.342-.525L66.287,51.657l31-31A4.717,4.717,0,0,0,97.289,13.991ZM49.506,64.131l-2.988,2.987-3.565-3.565A1.523,1.523,0,1,0,40.8,65.708l3.565,3.565-3.537,3.537L32.718,64.7a1.523,1.523,0,1,0-2.153,2.154l8.111,8.111L35.138,78.5l-3.565-3.565a1.523,1.523,0,1,0-2.153,2.154l3.565,3.564-3.537,3.537-3.565-3.565a1.523,1.523,0,0,0-2.153,2.154l3.565,3.565L23.758,89.88l-8.111-8.111a1.523,1.523,0,1,0-2.153,2.154l8.111,8.11-3.1,3.1a1.666,1.666,0,0,1-2.357,0L3.538,82.515a1.669,1.669,0,0,1,0-2.357l31-31ZM6.446,16.764A7.3,7.3,0,1,1,16.766,6.444l4.813,4.813L11.259,21.577Zm16.066,5.743h0l-5.159,5.159-3.939-3.939L23.733,13.41l3.939,3.939Zm70.7,70.7-15-5.825,9.173-9.173Z" transform="translate(-0.006 0)"/></g></svg>