<svg xmlns="http://www.w3.org/2000/svg" xmlns:xlink="http://www.w3.org/1999/xlink" width="99.383" height="96.899" viewBox="0 0 99.383 96.899"><defs><style>.a{fill:url(#a);}.b{fill:#ff408c;}</style><radialGradient id="a" cx="0.329" cy="0.224" r="0.781" gradientTransform="translate(-0.01 0.01) scale(0.973 0.968)" gradientUnits="objectBoundingBox"><stop offset="0" stop-color="#4b2b36" stop-opacity="0.98"/><stop offset="1" stop-color="#250012"/></radialGradient></defs><g transform="translate(0)"><path class="a" d="M24.8,155.549h91.1v88.617H24.8Z" transform="translate(-20.662 -151.408)"/><path class="b" d="M4.141,134.887h91.1V223.5H4.141ZM0,227.645H99.383v-96.9H0ZM62.86,171a5.894,5.894,0,0,0-2.443-.414c-5.342,0-9.069,4.1-9.069,10.932,0,7.785,3.81,10.932,8.572,10.932a7.44,7.44,0,0,0,2.94-.5Zm-2.195-6.75a19.086,19.086,0,0,1,2.195.083V153.314a.39.39,0,0,1,.414-.414h6.708c.331,0,.414.124.414.331V191.95a31.229,31.229,0,0,0,.207,4.182c0,.29-.083.331-.373.5a25.318,25.318,0,0,1-10.849,2.443c-9.151,0-15.694-5.673-15.694-17.226-.041-9.9,6.5-17.6,16.978-17.6ZM36.358,197.913c0,.414-.083.538-.538.538H29.442c-.414,0-.538-.207-.538-.538V153.438c0-.414.207-.538.538-.538h6.418c.331,0,.5.124.5.5Z" transform="translate(0 -130.746)"/></g></svg>