<svg xmlns="http://www.w3.org/2000/svg" width="75.18" height="75.18" viewBox="0 0 75.18 75.18"><defs><style>.a{fill:#dc395f;}.b{fill:#fff;}</style></defs><path class="a" d="M68.364,0H6.815A6.815,6.815,0,0,0,0,6.815V68.364A6.815,6.815,0,0,0,6.815,75.18H68.364a6.815,6.815,0,0,0,6.815-6.815V6.815A6.815,6.815,0,0,0,68.364,0"/><path class="b" d="M58.1,58.778a4.526,4.526,0,1,0-4.592-4.526A4.54,4.54,0,0,0,58.1,58.778M48.581,83.012a15.544,15.544,0,0,0-.405,3.4c0,3.985,2.161,6.631,6.754,6.631,3.809,0,6.9-2.262,9.12-5.914l-1.358,5.448h7.563l4.323-17.338c1.081-4.39,3.174-6.668,6.349-6.668a3.78,3.78,0,0,1,4.052,4.12,8.09,8.09,0,0,1-.338,2.431L82.413,83.09a11.978,11.978,0,0,0-.472,3.377c0,3.783,2.228,6.551,6.888,6.551,3.985,0,7.159-2.565,8.915-8.711l-2.971-1.147C93.286,87.277,92,88.021,90.99,88.021S89.436,87.347,89.436,86a8.96,8.96,0,0,1,.338-2.095l2.162-7.764a17.123,17.123,0,0,0,.743-4.925c0-5.808-3.512-8.839-7.767-8.839-3.985,0-8.037,3.594-10.063,7.377l1.485-6.79H64.786l-1.621,5.98h5.4L65.241,82.262c-2.613,5.808-7.412,5.9-8.015,5.768-.989-.223-1.622-.6-1.622-1.884a12.736,12.736,0,0,1,.473-3.091l5.066-20.094H48.311l-1.621,5.98h5.335L48.581,83.012" transform="translate(-32.979 -35.124)"/></svg>