<svg xmlns="http://www.w3.org/2000/svg" width="104.303" height="60.734" viewBox="0 0 104.303 60.734"><defs><style>.a{fill:#1fb6ff;}.b{fill:#fff;}</style></defs><g transform="translate(112.264 -10.187)"><path class="a" d="M-236,0h104.3V60.734H-236Z" transform="translate(123.736 10.187)"/><path class="b" d="M129.007,72.7c-29.984-2.257-54.763,4.79-60.336,7.415-3.086,1.382-3.316,3.132-2.856,4.1.415.737,1.888,1.2,3.5.368,11.883-6.31,35.971-11.33,59.691-9.9a.991.991,0,1,0,0-1.98Zm7.415-8.843c-1.244,1.382-3.086,2.441-3.685,1.934-.553-.507,0-2.165,0-2.165,2.948-1.888,8.659-6.678,8.659-10.363,0-3.408-3.086-4.468-6.356-1.29a23.694,23.694,0,0,0-5.573,9.949c-1.7,1.658-4.376,3.777-6.817,3.777-1.244,0-1.612-.875-1.428-2.073,2.073-.046,7.784-1.612,7.784-6.356a2.977,2.977,0,0,0-.921-2.073,2.9,2.9,0,0,0-2.165-.737c-2.579,0-5.9,2.625-7.507,6.31a6.028,6.028,0,0,1-1.29-.415,15.774,15.774,0,0,0,1.013-2.81c.368-1.934-.461-3.132-2.073-2.994-1.013.092-2.257.967-2.487,2.994a5.619,5.619,0,0,0,.553,2.994c-.691,2.165-3.593,4.882-4.56,4.79s.138-3.961,1.105-6.817a5.371,5.371,0,0,0,1.244-1.934,1.194,1.194,0,0,0-.461-1.566,3,3,0,0,0-3.777,1.566,13.19,13.19,0,0,0-1.013,2.165c-.783.967-2.073,2.165-2.441,2.073-.553-.368,1.244-2.717,1.013-4.007a2.083,2.083,0,0,0-2.257-1.75c-1.612.23-3.777,3.27-3.777,3.27a5.785,5.785,0,0,0,.461-1.75c-.092-1.151-2.257-1.658-3.316.415a31.191,31.191,0,0,0-1.612,6.172c-.461.967-2.257,3.777-3.685,3.869-1.151.092.276-4.974.461-5.251.645-.967,1.428-2.994,1.244-3.869a1.471,1.471,0,0,0-.507-1.105,1.378,1.378,0,0,0-1.2-.23,2.693,2.693,0,0,0-1.7,1.29,2.246,2.246,0,0,0-2.165-.783c-4.744.507-7.784,8.659-7.461,12.482.276,2.073,1.244,3.316,3.086,3.086,2.073-.276,3.777-3.224,3.777-3.224s.461,2.441,2.671,2.165a8.368,8.368,0,0,0,4.191-2.9,1.345,1.345,0,0,0-.092.415c-.368,2.073,3.086,1.842,3.408.276,1.013-7.784,3.685-11.008,4.468-11.008.645,0-1.7,3.685-.368,5.066,1.013,1.244,2.856.276,4.376-1.013a13.079,13.079,0,0,0-.461,2.994c-.092,2.165.691,3.915,2.856,3.869,2.856-.092,5.9-3.593,7.876-6.909a5.527,5.527,0,0,0,1.7.691,8.3,8.3,0,0,0-.23,2.4c.184,2.533,1.981,3.5,4.053,3.408,2.441-.092,5.3-1.934,7.231-3.593a.655.655,0,0,1-.092.276c-.184,1.244.092,3.5,1.888,3.593,2.073.184,5.619-1.934,7.415-4.1,1.52-.967.046-2.349-1.059-1.2Zm1.934-10.547a.4.4,0,0,1,.368.415c0,2.165-5.573,6.817-5.573,6.817s3.639-7.231,5.2-7.231Zm-13.4,4.56a.693.693,0,0,1,.507.184.52.52,0,0,1,.138.507c0,1.244-1.7,2.165-3.593,2.165C123.019,59.3,124.171,57.868,124.954,57.868ZM87.877,61.276c-.184,1.29-2.487,7.185-3.777,7.185-1.612.092.783-8.29,3.408-8.244C88.015,60.216,88.015,60.585,87.877,61.276ZM67.7,62.842c1.52,0-1.244,7.784-.875,11.192s4.191,2.441,3.915.415c-.461-3.316,1.888-13.91,4.191-13.91,1.7,0-1.888,7.277-1.151,11.791.461,2.994,4.56,2.073,4.1.184-1.244-5.942,2.948-11.7,2.4-15.89-.276-1.75-1.244-2.717-2.441-2.717-3.869,0-7,7.692-7,7.692s.368-4.376-2.763-4.56C63.558,56.808,58.906,68,59,78.133c.092,3.224,4.191,2.717,3.915.092C62.683,73.712,65.354,62.842,67.7,62.842Z" transform="translate(-159.127 -27.009)"/></g></svg>