<svg xmlns="http://www.w3.org/2000/svg" width="65.811" height="109.685" viewBox="0 0 65.811 109.685"><defs><style>.a{fill:#2579d8;}</style></defs><path class="a" d="M25.938,67.843a1.825,1.825,0,0,1-1.159-.413L4.67,50.977A1.832,1.832,0,0,1,4.017,49.3L7.673,23.71a1.83,1.83,0,0,1,1.154-1.448l23.765-9.14a1.825,1.825,0,0,1,1.813.291L54.514,29.865a1.832,1.832,0,0,1,.653,1.675L51.511,57.132a1.83,1.83,0,0,1-1.154,1.448l-23.765,9.14A1.761,1.761,0,0,1,25.938,67.843ZM7.785,48.8,26.274,63.927l21.772-8.374L51.4,32.044,32.915,16.917,11.143,25.291Z" transform="translate(3.312 10.764)"/><path class="a" d="M10.83,43.592a1.829,1.829,0,0,1-.819-3.464L23.76,33.253,25.467,19.6a1.828,1.828,0,1,1,3.627.453L27.266,34.677a1.829,1.829,0,0,1-1,1.409L11.645,43.4A1.811,1.811,0,0,1,10.83,43.592Z" transform="translate(7.453 14.906)"/><path class="a" d="M31.624,40.625a1.815,1.815,0,0,1-1.188-.441l-12.8-10.968a1.827,1.827,0,1,1,2.38-2.773l12.8,10.968a1.827,1.827,0,0,1-1.192,3.214Z" transform="translate(14.078 21.53)"/><path class="a" d="M26.8,7.656H15.828a1.828,1.828,0,1,1,0-3.656H26.8a1.828,1.828,0,0,1,0,3.656Z" transform="translate(11.593 3.312)"/><path class="a" d="M60.334,71.593H5.477A5.483,5.483,0,0,1,0,66.116V47.828A1.828,1.828,0,0,1,1.828,46H63.983a1.828,1.828,0,0,1,1.828,1.828V66.116a5.483,5.483,0,0,1-5.477,5.477ZM3.656,49.656v16.46a1.823,1.823,0,0,0,1.821,1.821H60.334a1.823,1.823,0,0,0,1.821-1.821V49.656Z" transform="translate(0 38.092)"/><path class="a" d="M21.312,63.625a7.312,7.312,0,1,1,7.312-7.312A7.32,7.32,0,0,1,21.312,63.625Zm0-10.968a3.656,3.656,0,1,0,3.656,3.656A3.66,3.66,0,0,0,21.312,52.656Z" transform="translate(11.593 40.576)"/><path class="a" d="M60.334,109.685H5.477A5.483,5.483,0,0,1,0,104.208V5.488A5.493,5.493,0,0,1,5.486,0H60.323a5.5,5.5,0,0,1,5.488,5.488v98.72A5.483,5.483,0,0,1,60.334,109.685ZM5.486,3.656a1.832,1.832,0,0,0-1.83,1.832v98.72a1.823,1.823,0,0,0,1.821,1.821H60.334a1.823,1.823,0,0,0,1.821-1.821V5.488a1.833,1.833,0,0,0-1.832-1.832Z" transform="translate(0 0)"/></svg>