<svg xmlns="http://www.w3.org/2000/svg" xmlns:xlink="http://www.w3.org/1999/xlink" width="98.115" height="95.663" viewBox="0 0 98.115 95.663"><defs><style>.a{fill:url(#a);}.b{fill:#31c5f0;}</style><radialGradient id="a" cx="0.329" cy="0.224" r="0.781" gradientTransform="translate(-0.01 0.01) scale(0.973 0.968)" gradientUnits="objectBoundingBox"><stop offset="0" stop-color="#34364e" stop-opacity="0.98"/><stop offset="1" stop-color="#0c0824"/></radialGradient></defs><path class="a" d="M24.8,155.549h89.939v87.486H24.8Z" transform="translate(-20.715 -151.461)"/><path class="b" d="M4.088,134.834H94.027V222.32H4.088ZM0,226.409H98.115V130.746H0Zm66.146-56.417c-3.23,0-4.333,1.635-4.333,2.984,0,1.472.736,2.494,5.069,4.742,6.418,3.107,8.422,6.091,8.422,10.466,0,6.541-4.988,10.057-11.733,10.057a17.786,17.786,0,0,1-8.381-1.758c-.286-.123-.327-.327-.327-.654v-6.01c0-.409.2-.532.491-.327a15.174,15.174,0,0,0,8.217,2.412c3.23,0,4.579-1.349,4.579-3.189,0-1.472-.94-2.78-5.069-4.906-5.805-2.78-8.217-5.6-8.217-10.3,0-5.274,4.129-9.648,11.283-9.648A18.8,18.8,0,0,1,73.464,165a.905.905,0,0,1,.409.818v5.6c0,.327-.2.532-.613.409a13.81,13.81,0,0,0-7.113-1.839Zm-35.158,4.865c.94.082,1.676.082,3.311.082,4.783,0,9.28-1.676,9.28-8.176,0-5.192-3.23-7.808-8.667-7.808-1.635,0-3.189.082-3.925.123Zm-7.277-21.708c0-.286.572-.491.9-.491,2.617-.123,6.5-.2,10.547-.2,11.324,0,15.739,6.214,15.739,14.145,0,10.384-7.522,14.84-16.761,14.84-1.553,0-2.085-.082-3.189-.082v15.7c0,.327-.123.491-.491.491H24.2c-.327,0-.491-.123-.491-.491V153.149Z" transform="translate(0 -130.746)"/></svg>