<svg xmlns="http://www.w3.org/2000/svg" width="94.47" height="85.481" viewBox="0 0 94.47 85.481"><defs><style>.a{fill:#ea6c00;}.a,.b,.c,.d{fill-rule:evenodd;}.b{fill:#fdad00;}.c{fill:#fdd231;}.d{fill:#feeeb7;}</style></defs><g transform="translate(-0.17 -0.42)"><path class="a" d="M19.131,0l28.1,55L0,0Z" transform="translate(0.17 30.901)"/><path class="a" d="M19.131,0l28.1-55L0,0Z" transform="translate(94.64 30.901) rotate(180)"/><path class="b" d="M0,0H56.2L28.1,55Z" transform="translate(19.3 30.901)"/><path class="c" d="M28.1,0,1.479,2.814,0,30.481Z" transform="translate(19.3 0.42)"/><path class="c" d="M28.1,0,1.479-2.814,0-30.481Z" transform="translate(75.5 0.42) rotate(180)"/><path class="b" d="M0-27.667,20.61,0,19.131-27.667Z" transform="translate(94.64 3.234) rotate(180)"/><path class="b" d="M0,27.667,20.61,0,19.131,27.667Z" transform="translate(0.17 3.234)"/><path class="d" d="M28.1,0,0,30.481H56.2Z" transform="translate(19.3 0.42)"/></g></svg>