<svg xmlns="http://www.w3.org/2000/svg" width="974.917" height="611.896" viewBox="0 0 974.917 611.896"><defs><style>.a{fill:#3f3d56;}.b{fill:#ff6584;}.c{fill:#e6e6e6;}.d{fill:#2579d8;}.e{fill:#f2f2f2;}.f{fill:#ffb8b8;}.g{fill:#2f2e41;}.h{fill:#ccc;}</style></defs><path class="a" d="M769.778,413.351H112.542v-269.3H769.778Zm-655.236-2H767.778v-265.3H114.542Z" transform="translate(-112.542 -144.052)"/><path class="b" d="M205.37,246.689h-41.3a144.461,144.461,0,0,1,0-49.247h41.3a88.611,88.611,0,0,0,0,49.247Z" transform="translate(-112.542 -144.052)"/><path class="c" d="M241.128,267.667h41.3a144.46,144.46,0,0,0,0-49.247h-41.3A88.611,88.611,0,0,1,241.128,267.667Z" transform="translate(-112.542 -144.052)"/><path class="c" d="M507.67,277.737H563.8a1.5,1.5,0,0,0,0-3H507.67a1.5,1.5,0,0,0,0,3Z" transform="translate(-112.542 -144.052)"/><path class="c" d="M562.337,263.585l8.769,8c1,.915,3.761,2.805,4.384,4,1.288,2.475-.1,1.91-2.3,2.767a49.36,49.36,0,0,0-14.764,9.168c-1.451,1.279.677,3.394,2.121,2.121a45.832,45.832,0,0,1,13.44-8.4c1.769-.7,5.125-1.11,5.966-3.217,1.029-2.579-2.248-4.482-3.8-5.9l-11.692-10.672c-1.424-1.3-3.551.816-2.121,2.121Z" transform="translate(-112.542 -144.052)"/><path class="d" d="M193.128,338.667h41.3a144.46,144.46,0,0,0,0-49.247h-41.3A88.611,88.611,0,0,1,193.128,338.667Z" transform="translate(-112.542 -144.052)"/><path class="d" d="M514.128,242.667h41.3a144.457,144.457,0,0,0,0-49.247h-41.3a88.611,88.611,0,0,1,0,49.247Z" transform="translate(-112.542 -144.052)"/><path class="e" d="M270.825,179.533V57.985l-11-2.452v135l83-.849-.28-10.884Z"/><path class="a" d="M465.367,344.737h-100v-161h100Zm-98-2h96v-157h-96Z" transform="translate(-112.542 -144.052)"/><rect class="a" width="16.197" height="2" transform="translate(261.825 49.684)"/><rect class="a" width="16.197" height="2" transform="translate(261.825 54.684)"/><rect class="a" width="16.197" height="2" transform="translate(261.825 59.684)"/><rect class="a" width="69.197" height="2" transform="translate(269.825 145.684)"/><rect class="a" width="69.197" height="2" transform="translate(269.825 156.684)"/><rect class="a" width="69.197" height="2" transform="translate(269.825 167.684)"/><path class="a" d="M450.367,206.737a7,7,0,1,1,7-7,7,7,0,0,1-7,7Zm0-12a5,5,0,1,0,5,5A5,5,0,0,0,450.367,194.737Z" transform="translate(-112.542 -144.052)"/><path class="a" d="M452.367,266.737h-71v-46h71Zm-69-2h67v-42h-67Z" transform="translate(-112.542 -144.052)"/><rect class="a" width="2" height="81.835" transform="translate(269.29 78.528) rotate(-57.475)"/><rect class="a" width="81.835" height="2" transform="translate(269.287 120.839) rotate(-32.525)"/><path class="e" d="M524.825,179.533V57.985l-11-2.452v135l83-.849-.28-10.884Z"/><path class="a" d="M720.367,342.737h-100v-161h100Zm-98-2h96v-157h-96Z" transform="translate(-112.542 -144.052)"/><rect class="a" width="16.197" height="2" transform="translate(516.825 47.684)"/><rect class="a" width="16.197" height="2" transform="translate(516.825 52.684)"/><rect class="a" width="16.197" height="2" transform="translate(516.825 57.684)"/><path class="a" d="M705.367,204.737a7,7,0,1,1,7-7A7,7,0,0,1,705.367,204.737Zm0-12a5,5,0,1,0,5,5,5,5,0,0,0-5-5Z" transform="translate(-112.542 -144.052)"/><path class="a" d="M707.367,264.737h-71v-46h71Zm-69-2h67v-42h-67Z" transform="translate(-112.542 -144.052)"/><rect class="a" width="2" height="81.835" transform="translate(524.291 76.527) rotate(-57.475)"/><rect class="a" width="81.835" height="2" transform="matrix(0.843, -0.538, 0.538, 0.843, 524.286, 118.837)"/><path class="a" d="M707.367,324.737h-71v-46h71Zm-69-2h67v-42h-67Z" transform="translate(-112.542 -144.052)"/><rect class="a" width="2" height="81.835" transform="translate(524.291 136.527) rotate(-57.475)"/><rect class="a" width="81.835" height="2" transform="matrix(0.843, -0.538, 0.538, 0.843, 524.286, 178.838)"/><path class="d" d="M400.128,375.667h41.3a144.46,144.46,0,0,0,0-49.247h-41.3A88.611,88.611,0,0,1,400.128,375.667Z" transform="translate(-112.542 -144.052)"/><circle class="f" cx="29.266" cy="29.266" r="29.266" transform="translate(745.7 186.566) rotate(-28.663)"/><circle class="g" cx="25.89" cy="25.89" r="25.89" transform="translate(805.412 135.98)"/><path class="g" d="M966.175,327.362a25.892,25.892,0,0,1-39.981-13.595,25.892,25.892,0,1,0,50.5-10.617A25.882,25.882,0,0,1,966.175,327.362Z" transform="translate(-112.542 -144.052)"/><path class="g" d="M864,327.391c4.52-8.092,6.249-11.472,12.077-16.392,5.153-4.352,11.492-5.63,16.605-1.506a30.8,30.8,0,1,1-18.266,24.644C869.972,333.511,868.445,328.015,864,327.391Z" transform="translate(-112.542 -144.052)"/><path class="f" d="M714.548,597.707l-13.385-3.888,8.626-53.481,19.756,5.739Z"/><path class="g" d="M800.657,732.322h28.921v16.926H785.77v-2.039A14.887,14.887,0,0,1,800.657,732.322Z" transform="translate(126.151 -339.942) rotate(16.197)"/><path class="f" d="M852.88,598.027H838.941l-6.631-53.765h20.572Z"/><path class="g" d="M826.945,594.043h28.921v16.926H812.058V608.93a14.887,14.887,0,0,1,14.887-14.887Z"/><path class="f" d="M932.624,554.92a11.433,11.433,0,0,1,3.208-17.235l-7.237-39.98,19.414,8.3,3.9,36.693a11.5,11.5,0,0,1-19.282,12.224Z" transform="translate(-112.542 -144.052)"/><path class="d" d="M943.033,459.2,920.255,390.05c-.475-.793-6.145-9.716-18.49-5.92a10.324,10.324,0,0,0-6.377,5.2c-3.614,6.928-.243,17.631-.228,17.688L923.2,469.859l.029.065,8.851,64.536,19.115-3.881Z" transform="translate(-112.542 -144.052)"/><path class="g" d="M791.638,715.007l34.284-105.128,39.75-90.859-.572-44.067,47.171-11,5.493,18.468c31.77,20.963,21.3,61.288,20.557,63.991l47.869,176.66-52.2,5.8L898.96,561.607l-32.311,67.965L843.8,731.237Z" transform="translate(-112.542 -144.052)"/><path class="d" d="M861.7,437.961c-9.379-17.978-2.6-24.823,7.656-35.178a141.138,141.138,0,0,0,11.773-13.015c16-20.566,34.563-10.466,34.749-10.361l.1.059,4.587,6.88c15.116,15.213-7.807,57.018-9.548,60.131l1.15,29.893-48.749,4.643Z" transform="translate(-112.542 -144.052)"/><path class="f" d="M880.272,553.364a11.433,11.433,0,0,1,7.465-15.863l3.113-40.51,16.683,12.94-5.514,36.485a11.5,11.5,0,0,1-21.747,6.948Z" transform="translate(-112.542 -144.052)"/><path class="d" d="M883.8,534.372l7.875-65.592L880.455,400.9c-.026-.476-.584-11.732,4.946-17.833a11.291,11.291,0,0,1,8.186-3.747c14.026-.614,17.379,11.071,17.411,11.188l4.568,72.917-10.3,72.134Z" transform="translate(-112.542 -144.052)"/><path class="h" d="M705.458,755.948h381a1,1,0,0,0,0-2h-381a1,1,0,0,0,0,2Z" transform="translate(-112.542 -144.052)"/></svg>