<svg xmlns="http://www.w3.org/2000/svg" width="102.522" height="99.105" viewBox="0 0 102.522 99.105"><defs><style>.a{fill:#2579d8;}</style></defs><g transform="translate(0 -8.533)"><g transform="translate(0 8.533)"><path class="a" d="M95.686,8.533H6.837A6.845,6.845,0,0,0,0,15.37V71.755a1.709,1.709,0,0,0,1.709,1.709h99.1a1.709,1.709,0,0,0,1.709-1.709V15.37A6.844,6.844,0,0,0,95.686,8.533ZM99.1,70.046H3.417V15.37A3.423,3.423,0,0,1,6.837,11.95H95.686A3.423,3.423,0,0,1,99.1,15.37Z" transform="translate(0 -8.533)"/></g><g transform="translate(0 70.046)"><path class="a" d="M100.814,315.733H1.709A1.709,1.709,0,0,0,0,317.442v8.542a6.845,6.845,0,0,0,6.837,6.837H95.686a6.845,6.845,0,0,0,6.837-6.837v-8.542A1.709,1.709,0,0,0,100.814,315.733ZM99.1,325.984a3.423,3.423,0,0,1-3.419,3.419H6.837a3.423,3.423,0,0,1-3.419-3.419V319.15H99.105v6.833Z" transform="translate(0 -315.733)"/></g><g transform="translate(44.426 76.881)"><path class="a" d="M233.828,349.867H223.576a1.709,1.709,0,0,0,0,3.417h10.252a1.709,1.709,0,0,0,0-3.417Z" transform="translate(-221.867 -349.867)"/></g><g transform="translate(6.835 15.368)"><path class="a" d="M121.278,42.667H35.843a1.709,1.709,0,0,0-1.709,1.709V99.054a1.709,1.709,0,0,0,1.709,1.709h85.435a1.709,1.709,0,0,0,1.709-1.709V44.376A1.709,1.709,0,0,0,121.278,42.667Zm-1.709,54.679H37.551V46.084h82.018V97.346Z" transform="translate(-34.134 -42.667)"/></g><g transform="translate(23.922 97.386)"><path class="a" d="M169.019,452.267H124.593a5.126,5.126,0,0,0,0,10.252H169.02a5.126,5.126,0,1,0,0-10.252Zm0,6.835H124.593a1.709,1.709,0,1,1,0-3.417H169.02a1.709,1.709,0,1,1,0,3.417Z" transform="translate(-119.467 -452.267)"/></g><g transform="translate(30.757 83.716)"><path class="a" d="M192.9,397.671c-5.67,0-8.544-4.024-8.544-11.961A1.709,1.709,0,0,0,182.649,384H165.562a1.709,1.709,0,0,0-1.709,1.709c0,7.937-2.874,11.961-8.544,11.961a1.709,1.709,0,1,0,0,3.417H192.9a1.709,1.709,0,1,0,0-3.417Zm-29.269,0c2.1-2.331,3.342-5.8,3.592-10.252h13.764c.248,4.451,1.487,7.922,3.592,10.252Z" transform="translate(-153.601 -384.001)"/></g><g transform="translate(59.816 44.416)"><path class="a" d="M320.556,202.194l-4.125-4.125,2.295-2.295a1.708,1.708,0,0,0-.716-2.845L300.923,187.8a1.709,1.709,0,0,0-2.127,2.127l5.126,17.087a1.708,1.708,0,0,0,2.845.718l2.416-2.418,4.125,4.127a1.708,1.708,0,0,0,2.416,0l4.832-4.834A1.707,1.707,0,0,0,320.556,202.194Zm-6.04,3.626-3.756-3.758a2.234,2.234,0,0,0-3.154,0l-1.234,1.234-3.392-11.307,11.306,3.392-1.323,1.323a1.937,1.937,0,0,0,0,2.736l3.964,3.964Z" transform="translate(-298.723 -187.731)"/></g><g transform="translate(22.213 22.203)"><path class="a" d="M160.486,76.8H112.643a1.709,1.709,0,0,0-1.709,1.709v8.544a1.709,1.709,0,0,0,1.709,1.709h47.844a1.709,1.709,0,0,0,1.709-1.709V78.509A1.709,1.709,0,0,0,160.486,76.8Zm-1.709,8.544H114.351V80.217h44.426Z" transform="translate(-110.934 -76.8)"/></g><g transform="translate(29.048 40.999)"><path class="a" d="M160.445,170.667h-13.67a1.709,1.709,0,0,0-1.709,1.709v6.835a1.709,1.709,0,0,0,1.709,1.709h13.67a1.709,1.709,0,0,0,1.709-1.709v-6.835A1.709,1.709,0,0,0,160.445,170.667Zm-1.709,6.835H148.484v-3.417h10.252Z" transform="translate(-145.067 -170.667)"/></g><g transform="translate(22.213 22.203)"><path class="a" d="M160.486,76.8H112.643a1.709,1.709,0,0,0-1.709,1.709v32.465a1.709,1.709,0,0,0,1.709,1.709H153.32a1.71,1.71,0,0,0,1.637-2.2l-2.163-7.212,7.2,2.162a1.709,1.709,0,0,0,2.2-1.637V78.509A1.71,1.71,0,0,0,160.486,76.8Zm-1.709,24.7-8.043-2.413a1.71,1.71,0,0,0-2.127,2.129l2.416,8.051H114.351V80.217h44.426Z" transform="translate(-110.934 -76.8)"/></g></g></svg>