<svg xmlns="http://www.w3.org/2000/svg" width="97.157" height="97.155" viewBox="0 0 97.157 97.155"><defs><style>.a{fill:#2579d8;}</style></defs><g transform="translate(-0.002 0)"><g transform="translate(0.002 0)"><path class="a" d="M49.468,59.378a27.673,27.673,0,1,0-19.576-8.1A27.673,27.673,0,0,0,49.468,59.378Zm-17.29-44.96a24.376,24.376,0,1,1-7.19,17.287,24.45,24.45,0,0,1,7.19-17.287Z" transform="translate(13.482 2.496)"/><path class="a" d="M38.837,11.329a17.973,17.973,0,0,1,13.81,5.207,1.619,1.619,0,1,0,2.29-2.29,21.192,21.192,0,0,0-16.3-6.153,1.619,1.619,0,0,0-1.516,1.718A1.639,1.639,0,0,0,38.837,11.329Z" transform="translate(22.981 4.987)"/><path class="a" d="M30.958,15.978A1.619,1.619,0,0,0,32.1,15.5a17.9,17.9,0,0,1,3.57-2.769,1.619,1.619,0,1,0-1.645-2.79,21.137,21.137,0,0,0-4.21,3.269,1.619,1.619,0,0,0,1.145,2.764Z" transform="translate(18.168 6.02)"/><path class="a" d="M1.9,95.248a6.5,6.5,0,0,0,9.2,0l.215-.215a4.816,4.816,0,0,0,5.546-.938L37.6,73.369a4.876,4.876,0,0,0,.933-5.543l5.284-5.284a34.2,34.2,0,1,0-9.2-9.2l-5.3,5.3a5,5,0,0,0-5.53.921L3.058,80.287a4.82,4.82,0,0,0-.939,5.546l-.214.215a6.511,6.511,0,0,0,0,9.2Zm2.29-2.29a3.268,3.268,0,0,1,0-4.621v-.008L6.505,90.64l2.319,2.3a3.347,3.347,0,0,1-4.629.015ZM41.056,12.306A30.869,30.869,0,1,1,31.948,34.2a30.963,30.963,0,0,1,9.108-21.894ZM36.573,55.958c.69.834,1.415,1.648,2.194,2.429s1.595,1.5,2.429,2.194l-4.738,4.738L31.835,60.7ZM5.342,82.581,18.021,69.9,19.18,71.06a1.619,1.619,0,1,0,2.29-2.29l-1.159-1.158,2.319-2.319,1.158,1.159a1.619,1.619,0,1,0,2.29-2.29L24.919,63l1.159-1.161a1.642,1.642,0,0,1,2.317,0l6.912,6.911a1.645,1.645,0,0,1,0,2.319l-1.159,1.159-3.464-3.464a1.619,1.619,0,0,0-2.29,2.29l3.464,3.464L29.54,76.841l-3.464-3.464a1.619,1.619,0,1,0-2.29,2.29l3.464,3.464L14.572,91.811a1.678,1.678,0,0,1-2.317,0L5.342,84.895a1.635,1.635,0,0,1,0-2.314Z" transform="translate(-0.002 0)"/></g></g></svg>